# xmcd
#
# Track frame offsets: 
#        150
#        20562
#        34095
#        50090
#        70316
#        88850
#        113224
#        130177
#        155749
#        172716
#        193405
#        216906
#        232379
#        252392
#        270292
#        290711
#        309916
#
# Disc length: 4339 seconds
#
# Revision: 0
# Processed by: cddbd v1.5.2PL0 Copyright (c) Steve Scherf et al.
# Submitted via: ExactAudioCopy v0.99pb4
#
DISCID=0410f111
DTITLE=Corneille - The Birth of Cornelius
DYEAR=2008
DGENRE=R&B
TTITLE0=Back To Life
TTITLE1=All of My Love
TTITLE2=Liberation
TTITLE3=A Man of This World
TTITLE4=Murder
TTITLE5=Foolish Heart
TTITLE6=Too Much of Everything
TTITLE7=Home is By You
TTITLE8=I'll Never Call You Home Again
TTITLE9=Sweet Dependency
TTITLE10=Heaven
TTITLE11=Love is Good
TTITLE12=I Never Loved You
TTITLE13=Spending on You
TTITLE14=The One
TTITLE15=Sukiyaki-Lonely Nights-
TTITLE16=Sukiyaki-Lonely Nights-acoustic version-
EXTD=
EXTT0=
EXTT1=
EXTT2=
EXTT3=
EXTT4=
EXTT5=
EXTT6=
EXTT7=
EXTT8=
EXTT9=
EXTT10=
EXTT11=
EXTT12=
EXTT13=
EXTT14=
EXTT15=
EXTT16=
PLAYORDER=
